<mxfile host="app.diagrams.net" modified="2020-12-07T09:59:47.804Z" agent="5.0 (Windows NT 10.0; Win64; x64) AppleWebKit/537.36 (KHTML, like Gecko) Chrome/86.0.4240.198 Safari/537.36" etag="pStK7W82RPW9uUkznGY1" version="13.10.9" type="github">
  <diagram id="e0BPaKkn3-QhgU1faQ__" name="Page-1">
    <mxGraphModel dx="1422" dy="762" grid="1" gridSize="10" guides="1" tooltips="1" connect="1" arrows="1" fold="1" page="1" pageScale="1" pageWidth="1169" pageHeight="827" math="0" shadow="0">
      <root>
        <mxCell id="0" />
        <mxCell id="1" parent="0" />
        <mxCell id="TvflV0zRfhBrHO_sSjlH-4" style="rounded=0;orthogonalLoop=1;jettySize=auto;html=1;exitX=1;exitY=0;exitDx=0;exitDy=0;entryX=0;entryY=1;entryDx=0;entryDy=0;" edge="1" parent="1" source="TvflV0zRfhBrHO_sSjlH-1" target="TvflV0zRfhBrHO_sSjlH-2">
          <mxGeometry relative="1" as="geometry" />
        </mxCell>
        <mxCell id="TvflV0zRfhBrHO_sSjlH-5" style="edgeStyle=none;rounded=0;orthogonalLoop=1;jettySize=auto;html=1;exitX=1;exitY=1;exitDx=0;exitDy=0;entryX=0;entryY=0.25;entryDx=0;entryDy=0;" edge="1" parent="1" source="TvflV0zRfhBrHO_sSjlH-1" target="TvflV0zRfhBrHO_sSjlH-3">
          <mxGeometry relative="1" as="geometry" />
        </mxCell>
        <mxCell id="TvflV0zRfhBrHO_sSjlH-1" value="&lt;b&gt;&lt;font style=&quot;font-size: 24px&quot;&gt;@bigo/plum-cli&lt;/font&gt;&lt;/b&gt;" style="text;html=1;strokeColor=none;fillColor=none;align=center;verticalAlign=middle;whiteSpace=wrap;rounded=0;" vertex="1" parent="1">
          <mxGeometry x="50" y="360" width="190" height="80" as="geometry" />
        </mxCell>
        <mxCell id="TvflV0zRfhBrHO_sSjlH-7" style="edgeStyle=none;rounded=0;orthogonalLoop=1;jettySize=auto;html=1;exitX=1;exitY=0.5;exitDx=0;exitDy=0;" edge="1" parent="1" source="TvflV0zRfhBrHO_sSjlH-2" target="TvflV0zRfhBrHO_sSjlH-6">
          <mxGeometry relative="1" as="geometry" />
        </mxCell>
        <mxCell id="TvflV0zRfhBrHO_sSjlH-2" value="&lt;b&gt;&lt;font style=&quot;font-size: 24px&quot;&gt;plum init&lt;/font&gt;&lt;/b&gt;" style="text;html=1;strokeColor=none;fillColor=none;align=center;verticalAlign=middle;whiteSpace=wrap;rounded=0;" vertex="1" parent="1">
          <mxGeometry x="305" y="250" width="130" height="60" as="geometry" />
        </mxCell>
        <mxCell id="TvflV0zRfhBrHO_sSjlH-14" style="edgeStyle=none;rounded=0;orthogonalLoop=1;jettySize=auto;html=1;" edge="1" parent="1" source="TvflV0zRfhBrHO_sSjlH-3" target="TvflV0zRfhBrHO_sSjlH-13">
          <mxGeometry relative="1" as="geometry" />
        </mxCell>
        <mxCell id="TvflV0zRfhBrHO_sSjlH-3" value="&lt;b&gt;&lt;font style=&quot;font-size: 24px&quot;&gt;plum publish&lt;/font&gt;&lt;/b&gt;" style="text;html=1;strokeColor=none;fillColor=none;align=center;verticalAlign=middle;whiteSpace=wrap;rounded=0;" vertex="1" parent="1">
          <mxGeometry x="300" y="480" width="170" height="70" as="geometry" />
        </mxCell>
        <mxCell id="TvflV0zRfhBrHO_sSjlH-10" style="edgeStyle=none;rounded=0;orthogonalLoop=1;jettySize=auto;html=1;entryX=0;entryY=0.5;entryDx=0;entryDy=0;" edge="1" parent="1" source="TvflV0zRfhBrHO_sSjlH-6" target="TvflV0zRfhBrHO_sSjlH-9">
          <mxGeometry relative="1" as="geometry" />
        </mxCell>
        <mxCell id="TvflV0zRfhBrHO_sSjlH-6" value="输入组件名cid" style="rounded=0;whiteSpace=wrap;html=1;" vertex="1" parent="1">
          <mxGeometry x="480" y="245" width="130" height="70" as="geometry" />
        </mxCell>
        <mxCell id="TvflV0zRfhBrHO_sSjlH-12" style="edgeStyle=none;rounded=0;orthogonalLoop=1;jettySize=auto;html=1;entryX=0;entryY=0.5;entryDx=0;entryDy=0;" edge="1" parent="1" source="TvflV0zRfhBrHO_sSjlH-9" target="TvflV0zRfhBrHO_sSjlH-11">
          <mxGeometry relative="1" as="geometry" />
        </mxCell>
        <mxCell id="TvflV0zRfhBrHO_sSjlH-9" value="配置package.json" style="rounded=0;whiteSpace=wrap;html=1;" vertex="1" parent="1">
          <mxGeometry x="660" y="245" width="130" height="70" as="geometry" />
        </mxCell>
        <mxCell id="TvflV0zRfhBrHO_sSjlH-11" value="生成项目" style="rounded=0;whiteSpace=wrap;html=1;" vertex="1" parent="1">
          <mxGeometry x="840" y="245" width="130" height="70" as="geometry" />
        </mxCell>
        <mxCell id="TvflV0zRfhBrHO_sSjlH-16" style="edgeStyle=none;rounded=0;orthogonalLoop=1;jettySize=auto;html=1;exitX=1;exitY=0.5;exitDx=0;exitDy=0;" edge="1" parent="1" source="TvflV0zRfhBrHO_sSjlH-13" target="TvflV0zRfhBrHO_sSjlH-15">
          <mxGeometry relative="1" as="geometry" />
        </mxCell>
        <mxCell id="TvflV0zRfhBrHO_sSjlH-13" value="根据 .npmignore 分析不需要打包的文件" style="rounded=0;whiteSpace=wrap;html=1;" vertex="1" parent="1">
          <mxGeometry x="500" y="480" width="130" height="70" as="geometry" />
        </mxCell>
        <mxCell id="TvflV0zRfhBrHO_sSjlH-18" style="edgeStyle=none;rounded=0;orthogonalLoop=1;jettySize=auto;html=1;entryX=0;entryY=0.5;entryDx=0;entryDy=0;" edge="1" parent="1" source="TvflV0zRfhBrHO_sSjlH-15" target="TvflV0zRfhBrHO_sSjlH-17">
          <mxGeometry relative="1" as="geometry" />
        </mxCell>
        <mxCell id="TvflV0zRfhBrHO_sSjlH-15" value="剔除不需要打包的文件" style="rounded=0;whiteSpace=wrap;html=1;" vertex="1" parent="1">
          <mxGeometry x="670" y="480" width="130" height="70" as="geometry" />
        </mxCell>
        <mxCell id="TvflV0zRfhBrHO_sSjlH-20" style="edgeStyle=none;rounded=0;orthogonalLoop=1;jettySize=auto;html=1;entryX=0;entryY=0.5;entryDx=0;entryDy=0;" edge="1" parent="1" source="TvflV0zRfhBrHO_sSjlH-17" target="TvflV0zRfhBrHO_sSjlH-19">
          <mxGeometry relative="1" as="geometry" />
        </mxCell>
        <mxCell id="TvflV0zRfhBrHO_sSjlH-17" value="打包成zip" style="rounded=0;whiteSpace=wrap;html=1;" vertex="1" parent="1">
          <mxGeometry x="830" y="480" width="130" height="70" as="geometry" />
        </mxCell>
        <mxCell id="TvflV0zRfhBrHO_sSjlH-19" value="上传到包管理" style="rounded=0;whiteSpace=wrap;html=1;" vertex="1" parent="1">
          <mxGeometry x="990" y="480" width="130" height="70" as="geometry" />
        </mxCell>
      </root>
    </mxGraphModel>
  </diagram>
</mxfile>
